<mxfile host="app.diagrams.net" modified="2023-12-05T02:55:09.879Z" agent="Mozilla/5.0 (Windows NT 10.0; Win64; x64) AppleWebKit/537.36 (KHTML, like Gecko) Chrome/119.0.0.0 Safari/537.36" version="22.1.5" etag="t4ZeY1WrWpJXT4tqHptG" type="github">
  <diagram name="PÃ¡gina-1" id="bxvynTs7vyTyOahjGOtV">
    <mxGraphModel>
      <root>
        <mxCell id="0" />
        <mxCell id="1" parent="0" />
      </root>
    </mxGraphModel>
  </diagram>
</mxfile>
